<?xml version="1.0" encoding="utf-8"?>
<!-- Generator: Adobe Illustrator 22.1.0, SVG Export Plug-In . SVG Version: 6.00 Build 0)  -->
<svg version="1.1" id="Layer_1" xmlns="http://www.w3.org/2000/svg" xmlns:xlink="http://www.w3.org/1999/xlink" x="0px" y="0px"
	 viewBox="0 0 1198.1 380" style="enable-background:new 0 0 1198.1 380;" xml:space="preserve">
<style type="text/css">
	.st0{fill:#ED186F;}
	.st1{fill:#00BABC;}
	.st2{fill:#B24599;}
	.st3{fill:#010101;}
</style>
<g>
	<path class="st0" d="M280,145.4c16.7,0,30.2-12.6,30.2-29.3c0-16.2-13.5-28.9-30.2-28.9c-16.7,0-30.2,12.6-30.2,28.9
		C249.8,132.8,263.4,145.4,280,145.4z"/>
	<path class="st1" d="M280,226.1c16.7,0,30.2-13.5,30.2-30.2c0-16.2-13.5-29.3-30.2-29.3c-16.7,0-30.2,13.1-30.2,29.3
		C249.8,212.6,263.4,226.1,280,226.1z"/>
	<path class="st2" d="M280,292.8c16.7,0,30.2-13.1,30.2-29.8s-13.5-29.3-30.2-29.3c-16.7,0-30.2,12.6-30.2,29.3
		S263.4,292.8,280,292.8z"/>
	<g>
		<path class="st3" d="M1024.4,288.3h41v-41c0-32,10.8-41.9,38.3-41.9h3.2v-41h-0.5c-19.8,0-34.3,8.6-41.5,29.3h-0.5v-25.7h-40.1
			V288.3z"/>
		<path class="st3" d="M942.4,255.4c-15.8,0-28.4-11.7-28.4-27.1s12.6-27.1,28.4-27.1c16.2,0,28.9,11.7,28.9,27.1
			S958.6,255.4,942.4,255.4z M942.4,292.4c38.8,0,69-28,69-64s-30.2-64.5-69-64.5c-38.3,0-68.5,28.4-68.5,64.5
			S904.1,292.4,942.4,292.4z"/>
		<path class="st3" d="M841.4,288.3h17.1v-37.4H854c-10.8,0-13.5-4.1-13.5-15.8v-32.9h25.7v-34.3h-25.7v-37.4h-41v37.4h-14.9v34.3
			h14.9v44.2C799.4,276.1,816.1,288.3,841.4,288.3z"/>
		<path class="st3" d="M730,292.4c16.7,0,28.9-3.6,44.2-12.2l-16.7-32.5c-8.6,5.4-15.3,7.7-25.7,7.7c-15.3,0-28.9-11.7-28.9-27.1
			s13.5-27.1,28.9-27.1c10.4,0,17.1,2.3,25.7,7.7l16.7-32.9c-17.1-8.6-28.9-12.2-44.2-12.2c-37,0-67.6,28.4-67.6,64.5
			S693,292.4,730,292.4z"/>
		<path class="st3" d="M579.9,255.4c-15.8,0-28.4-9.9-28.4-27.1c0-15.3,10.4-27.1,28.4-27.1c16.2,0,28.9,9.9,28.9,27.1
			C608.7,243.7,598.4,255.4,579.9,255.4z M568.6,292.8c20.3,0,32.9-8.6,40.6-21.2h0.9v17.1h40.6V167.9h-40.6v17.1h-0.9
			c-8.6-13.5-23-21.2-40.6-21.2c-32.9,0-59.1,23-59.1,63.6C509.5,264,530.7,292.8,568.6,292.8z"/>
		<path class="st3" d="M436.5,288.8h40.6v-86.6h26.6v-34.3h-26.6v-7.2c0-17.6,8.6-27.5,23.9-27.5h3.6V95.3h-8.1c-38.3,0-60,23-60,64
			v8.6h-14.9v34.3h14.9V288.8z"/>
		<path class="st3" d="M383.3,288.8H400v-37.9h-4.5c-10.4,0-13.5-4.1-13.5-15.8v-32.9h25.7v-34.3h-25.7v-37.4h-40.6v37.4h-14.9v34.3
			h14.9v44.2C341.4,276.6,357.6,288.8,383.3,288.8z"/>
		<path class="st3" d="M132.6,165.2v-37.9h32c12.6,0,21.6,6.8,21.6,18.5c0,12.6-8.6,19.4-22.1,19.4H132.6z M132.6,250.9V209H166
			c17.1,0,27.5,6.8,27.5,20.7c0,14.4-11.3,21.2-27.5,21.2H132.6z M91.1,288.8h81.2c33.8,0,64.5-12.6,64.5-52.8
			c0-31.6-17.6-47.3-38.8-50.9v-0.5c23-12.2,29.8-29.8,29.8-47.8c0-26.2-20.7-46.9-58.2-46.9H91.1V288.8z"/>
	</g>
</g>
</svg>
